<?xml version="1.0" ?><svg xmlns="http://www.w3.org/2000/svg" id="Time_Management" viewBox="0 0 64 64"><path d="M46,18c0-.62439895-.04522093-1.23753561-.12827562-1.83880152-.11887227-.86056362.27309388-1.70890423,1.02543932-2.14327354l.00000311-.0000018c1.00805622-.58200482,1.35344129-1.87100262.77144016-2.87906097l-1.89238873-3.27772262c-.58200152-1.00805903-1.87099927-1.35344849-2.87905988-.7714497l-.00748226.00431985c-.7415352.42812166-1.66351844.35903513-2.34032754-.16545705-.98536293-.76360549-2.07424094-1.3989282-3.24379411-1.87964038-.78873359-.32418693-1.30555445-1.08766083-1.30555445-1.94041979v-.00087007c0-1.16400772-.9436147-2.10762242-2.10762242-2.10762242h-3.78475516c-1.16400772,0-2.10762242.9436147-2.10762242,2.10762242v.00087007c0,.85275896-.51682086,1.61623286-1.30555445,1.94041979-1.16955316.48071218-2.25843117,1.11603489-3.24379411,1.87964038-.6768091.52449218-1.59879235.59357871-2.34032754.16545705l-.00748226-.00431985c-1.00806061-.58199879-2.29705836-.23660933-2.87905988.7714497l-1.89238873,3.27772262c-.58200113,1.00805835-.23661606,2.29705615.77144016,2.87906097l.00000311.0000018c.75234544.4343693,1.1443116,1.28270992,1.02543932,2.14327354-.08305469.6012659-.12827562,1.21440257-.12827562,1.83880152s.04522093,1.23753561.12827562,1.83880152c.11887227.86056362-.27309388,1.70890423-1.02543932,2.14327354l-.00000311.0000018c-1.00805622.58200482-1.35344129,1.87100262-.77144016,2.87906097l1.89238873,3.27772262c.58200152,1.00805903,1.87099927,1.35344849,2.87905988.7714497l.00748226-.00431985c.7415352-.42812166,1.66351844-.35903513,2.34032754.16545705.98536293.76360549,2.07424094,1.3989282,3.24379411,1.87964038.78873359.32418693,1.30555445,1.08766083,1.30555445,1.94041979v.00087007c0,1.16400772.9436147,2.10762242,2.10762242,2.10762242h3.78475516c1.16400772,0,2.10762242-.9436147,2.10762242-2.10762242v-.00087007c0-.85275896.51682086-1.61623286,1.30555445-1.94041979,1.16955316-.48071218,2.25843117-1.11603489,3.24379411-1.87964038.6768091-.52449218,1.59879235-.59357871,2.34032754-.16545705l.00748226.00431985c1.00806061.58199879,2.29705836.23660933,2.87905988-.7714497l1.89238873-3.27772262c.58200113-1.00805835.23661606-2.29705615-.77144016-2.87906097l-.00000311-.0000018c-.75234544-.4343693-1.1443116-1.28270992-1.02543932-2.14327354.08305469-.6012659.12827562-1.21440257.12827562-1.83880152Z" style="fill:#78869b; stroke-width:0px;"/><path d="M32,9c-4.96274414,0-9,4.03769531-9,9s4.03725586,9,9,9,9-4.03769531,9-9-4.03725586-9-9-9Z" style="fill:#5e6e84; stroke-width:0px;"/><rect x="1" y="47" width="16" height="16" rx="2" ry="2" style="fill:#64c4ff; stroke-width:0px;"/><rect x="24" y="47" width="16" height="16" rx="2" ry="2" style="fill:#68ddc1; stroke-width:0px;"/><rect x="47" y="47" width="16" height="16" rx="2" ry="2" style="fill:#ffe094; stroke-width:0px;"/><path d="M5.70703125,54.29296875c-.390625-.390625-1.0234375-.390625-1.4140625,0s-.390625,1.0234375,0,1.4140625l3,3c.1953125.1953125.45117188.29296875.70703125.29296875s.51171875-.09765625.70703125-.29296875l5-5c.390625-.390625.390625-1.0234375,0-1.4140625s-1.0234375-.390625-1.4140625,0l-4.29296875,4.29296875-2.29296875-2.29296875Z" style="fill:#45a9f4; stroke-width:0px;"/><path d="M28.70703125,54.29296875c-.390625-.390625-1.0234375-.390625-1.4140625,0s-.390625,1.0234375,0,1.4140625l3,3c.1953125.1953125.45117188.29296875.70703125.29296875s.51171875-.09765625.70703125-.29296875l5-5c.390625-.390625.390625-1.0234375,0-1.4140625s-1.0234375-.390625-1.4140625,0l-4.29296875,4.29296875-2.29296875-2.29296875Z" style="fill:#4cc1a5; stroke-width:0px;"/><path d="M61,46h-5v-6c0-.55273438-.44775391-1-1-1h-22v-3h.89257812c1.71337891,0,3.10742188-1.39453125,3.10742188-3.10839844,0-.4453125.26904297-.84472656.68554688-1.015625,1.23876953-.50878906,2.40820312-1.18652344,3.47607422-2.01464844.36035156-.27734375.84082031-.3125,1.23535156-.08496094,1.48486328.85449219,3.38818359.34667969,4.24560547-1.13769531l1.89160156-3.27734375c.41552734-.71875.52587891-1.55566406.31103516-2.35839844-.21484375-.80175781-.72949219-1.47167969-1.44775391-1.88671875-.38964844-.22460938-.59960938-.67285156-.53515625-1.140625.09130859-.66308594.13769531-1.32714844.13769531-1.97558594s-.04638672-1.3125-.13769531-1.97558594c-.06445312-.46777344.14550781-.91601562.53466797-1.140625.71875-.41503906,1.23339844-1.08496094,1.44824219-1.88671875.21484375-.80273438.10449219-1.63964844-.31054688-2.35839844l-1.89257812-3.27734375c-.85595703-1.484375-2.76123047-1.99121094-4.25292969-1.13378906-.38769531.22460938-.86914062.18847656-1.22705078-.08886719-1.06835938-.828125-2.23779297-1.50585938-3.4765625-2.01464844-.41650391-.17089844-.68554688-.5703125-.68554688-1.01660156,0-1.71386719-1.39404297-3.10742188-3.10742188-3.10742188h-3.78515625c-1.71337891,0-3.10742188,1.39453125-3.10742188,3.10839844,0,.4453125-.26904297.84472656-.68554688,1.015625-1.23876953.50878906-2.40820312,1.18652344-3.47607422,2.01464844-.35986328.27832031-.84130859.3125-1.23535156.08496094-1.48486328-.85546875-3.38867188-.34570312-4.24560547,1.13769531l-1.89160156,3.27734375c-.41552734.71875-.52587891,1.55566406-.31103516,2.35839844.21484375.80175781.72949219,1.47167969,1.44775391,1.88671875.38964844.22460938.59960938.67285156.53515625,1.140625-.09130859.66308594-.13769531,1.32714844-.13769531,1.97558594s.04638672,1.3125.13769531,1.97558594c.06445312.46777344-.14550781.91601562-.53466797,1.140625-.71875.41503906-1.23339844,1.08496094-1.44824219,1.88671875-.21484375.80273438-.10449219,1.63964844.31054688,2.35839844l1.89257812,3.27734375c.85693359,1.48535156,2.76220703,1.99316406,4.25292969,1.13378906.38671875-.22558594.86767578-.18945312,1.22705078.08886719,1.06835938.828125,2.23779297,1.50585938,3.4765625,2.01464844.41650391.17089844.68554688.5703125.68554688,1.01660156,0,1.71386719,1.39404297,3.10742188,3.10742188,3.10742188h.89257812v3H9c-.55224609,0-1,.44726562-1,1v6H3c-1.65429688,0-3,1.34570312-3,3v12c0,1.65429688,1.34570312,3,3,3h12c1.65429688,0,3-1.34570312,3-3v-12c0-1.65429688-1.34570312-3-3-3h-5v-5h21v5h-5c-1.65429688,0-3,1.34570312-3,3v12c0,1.65429688,1.34570312,3,3,3h12c1.65429688,0,3-1.34570312,3-3v-12c0-1.65429688-1.34570312-3-3-3h-5v-5h21v5h-5c-1.65429688,0-3,1.34570312-3,3v12c0,1.65429688,1.34570312,3,3,3h12c1.65429688,0,3-1.34570312,3-3v-12c0-1.65429688-1.34570312-3-3-3ZM29,32.89160156c0-1.25976562-.75585938-2.38476562-1.92578125-2.86523438-1.07177734-.44042969-2.08496094-1.02832031-3.01123047-1.74511719-.56054688-.43457031-1.23095703-.65625-1.90527344-.65625-.53320312,0-1.06884766.13867188-1.5546875.41894531-.52734375.30566406-1.20800781.12402344-1.51318359-.40527344l-1.89257812-3.27734375c-.14746094-.25585938-.18701172-.5546875-.11035156-.83984375.07666016-.28613281.25976562-.52539062.51660156-.67285156,1.09667969-.63476562,1.69189453-1.86914062,1.515625-3.14648438-.07910156-.57226562-.11914062-1.14550781-.11914062-1.70214844s.04003906-1.12988281.11914062-1.70214844c.17626953-1.27734375-.41894531-2.51171875-1.51611328-3.14648438-.25634766-.14746094-.43945312-.38671875-.51611328-.67285156-.07666016-.28515625-.03710938-.58398438.11083984-.83984375l1.89160156-3.27734375c.30517578-.52832031.98339844-.7109375,1.52050781-.40136719,1.09423828.63183594,2.44921875.53808594,3.45361328-.24121094.92578125-.71679688,1.93896484-1.3046875,3.01074219-1.74511719,1.16992188-.48046875,1.92578125-1.60546875,1.92578125-2.86621094,0-.61035156.49658203-1.10742188,1.10742188-1.10742188h3.78515625c.61083984,0,1.10742188.49707031,1.10742188,1.10839844,0,1.25976562.75585938,2.38476562,1.92578125,2.86523438,1.07177734.44042969,2.08496094,1.02832031,3.01123047,1.74511719,1.00390625.77832031,2.35986328.87304688,3.45996094.23730469.52783203-.3046875,1.20800781-.12304688,1.51318359.40527344l1.89257812,3.27734375c.14746094.25585938.18701172.5546875.11035156.83984375-.07666016.28613281-.25976562.52539062-.51660156.67285156-1.09667969.63476562-1.69189453,1.86914062-1.515625,3.14648438.07910156.57226562.11914062,1.14550781.11914062,1.70214844s-.04003906,1.12988281-.11914062,1.70214844c-.17626953,1.27734375.41894531,2.51171875,1.51611328,3.14648438.25634766.14746094.43945312.38671875.51611328.67285156.07666016.28515625.03710938.58398438-.11083984.83984375l-1.89160156,3.27734375c-.30615234.52832031-.98486328.7109375-1.52050781.40136719-1.09228516-.62988281-2.44824219-.53710938-3.45361328.24121094-.92578125.71679688-1.93896484,1.3046875-3.01074219,1.74511719-1.16992188.48046875-1.92578125,1.60546875-1.92578125,2.86621094,0,.61035156-.49658203,1.10742188-1.10742188,1.10742188h-3.78515625c-.61083984,0-1.10742188-.49707031-1.10742188-1.10839844ZM16,49v12c0,.55175781-.44873047,1-1,1H3c-.55126953,0-1-.44824219-1-1v-12c0-.55175781.44873047-1,1-1h12c.55126953,0,1,.44824219,1,1ZM39,49v12c0,.55175781-.44873047,1-1,1h-12c-.55126953,0-1-.44824219-1-1v-12c0-.55175781.44873047-1,1-1h12c.55126953,0,1,.44824219,1,1ZM62,61c0,.55175781-.44873047,1-1,1h-12c-.55126953,0-1-.44824219-1-1v-12c0-.55175781.44873047-1,1-1h12c.55126953,0,1,.44824219,1,1v12Z" style="fill:#393e4c; stroke-width:0px;"/><path d="M42,18c0-5.51367188-4.48583984-10-10-10s-10,4.48632812-10,10,4.48583984,10,10,10,10-4.48632812,10-10ZM24,18c0-4.41113281,3.58886719-8,8-8s8,3.58886719,8,8-3.58886719,8-8,8-8-3.58886719-8-8Z" style="fill:#393e4c; stroke-width:0px;"/><path d="M33,18v-4.00097656c0-.55273438-.44775391-1-1-1s-1,.44726562-1,1v3.58691406l-1.70703125,1.70703125c-.390625.390625-.390625,1.0234375,0,1.4140625.1953125.1953125.45117188.29296875.70703125.29296875s.51171875-.09765625.70703125-.29296875l2-2c.1875-.1875.29296875-.44140625.29296875-.70703125Z" style="fill:#393e4c; stroke-width:0px;"/></svg>