<svg width="18" height="17" viewBox="0 0 18 17" fill="none" xmlns="http://www.w3.org/2000/svg">
<path d="M4.15385 2.96169C4.15385 3.51252 3.93503 4.0408 3.54553 4.4303C3.15603 4.81979 2.62776 5.03861 2.07692 5.03861C1.52609 5.03861 0.997815 4.81979 0.608317 4.4303C0.218818 4.0408 0 3.51252 0 2.96169C0 2.41085 0.218818 1.88258 0.608317 1.49308C0.997815 1.10358 1.52609 0.884766 2.07692 0.884766C2.62776 0.884766 3.15603 1.10358 3.54553 1.49308C3.93503 1.88258 4.15385 2.41085 4.15385 2.96169ZM4.15385 8.50015C4.15385 9.05098 3.93503 9.57926 3.54553 9.96876C3.15603 10.3583 2.62776 10.5771 2.07692 10.5771C1.52609 10.5771 0.997815 10.3583 0.608317 9.96876C0.218818 9.57926 0 9.05098 0 8.50015C0 7.94932 0.218818 7.42104 0.608317 7.03154C0.997815 6.64205 1.52609 6.42323 2.07692 6.42323C2.62776 6.42323 3.15603 6.64205 3.54553 7.03154C3.93503 7.42104 4.15385 7.94932 4.15385 8.50015ZM4.15385 14.0386C4.15385 14.5894 3.93503 15.1177 3.54553 15.5072C3.15603 15.8967 2.62776 16.1155 2.07692 16.1155C1.52609 16.1155 0.997815 15.8967 0.608317 15.5072C0.218818 15.1177 0 14.5894 0 14.0386C0 13.4878 0.218818 12.9595 0.608317 12.57C0.997815 12.1805 1.52609 11.9617 2.07692 11.9617C2.62776 11.9617 3.15603 12.1805 3.54553 12.57C3.93503 12.9595 4.15385 13.4878 4.15385 14.0386Z" fill="white"/>
<path fill-rule="evenodd" clip-rule="evenodd" d="M5.53857 2.96176C5.53857 2.59454 5.68445 2.24236 5.94412 1.98269C6.20378 1.72303 6.55597 1.57715 6.92319 1.57715H16.6155C16.9827 1.57715 17.3349 1.72303 17.5946 1.98269C17.8542 2.24236 18.0001 2.59454 18.0001 2.96176C18.0001 3.32899 17.8542 3.68117 17.5946 3.94083C17.3349 4.2005 16.9827 4.34638 16.6155 4.34638H6.92319C6.55597 4.34638 6.20378 4.2005 5.94412 3.94083C5.68445 3.68117 5.53857 3.32899 5.53857 2.96176ZM5.53857 8.50023C5.53857 8.133 5.68445 7.78082 5.94412 7.52115C6.20378 7.26149 6.55597 7.11561 6.92319 7.11561H16.6155C16.9827 7.11561 17.3349 7.26149 17.5946 7.52115C17.8542 7.78082 18.0001 8.133 18.0001 8.50023C18.0001 8.86745 17.8542 9.21963 17.5946 9.4793C17.3349 9.73896 16.9827 9.88484 16.6155 9.88484H6.92319C6.55597 9.88484 6.20378 9.73896 5.94412 9.4793C5.68445 9.21963 5.53857 8.86745 5.53857 8.50023ZM5.53857 14.0387C5.53857 13.6715 5.68445 13.3193 5.94412 13.0596C6.20378 12.8 6.55597 12.6541 6.92319 12.6541H16.6155C16.9827 12.6541 17.3349 12.8 17.5946 13.0596C17.8542 13.3193 18.0001 13.6715 18.0001 14.0387C18.0001 14.4059 17.8542 14.7581 17.5946 15.0178C17.3349 15.2774 16.9827 15.4233 16.6155 15.4233H6.92319C6.55597 15.4233 6.20378 15.2774 5.94412 15.0178C5.68445 14.7581 5.53857 14.4059 5.53857 14.0387Z" fill="white"/>
</svg>
