<svg width="18" height="19" viewBox="0 0 18 19" fill="none" xmlns="http://www.w3.org/2000/svg">
<path d="M0 14.9615V18.0015C0 18.2815 0.22 18.5015 0.5 18.5015H3.54C3.67 18.5015 3.8 18.4515 3.89 18.3515L14.81 7.44147L11.06 3.69147L0.15 14.6015C0.0500001 14.7015 0 14.8215 0 14.9615ZM17.71 4.54147C17.8027 4.44895 17.8762 4.33907 17.9264 4.21809C17.9766 4.09712 18.0024 3.96744 18.0024 3.83647C18.0024 3.7055 17.9766 3.57582 17.9264 3.45484C17.8762 3.33387 17.8027 3.22398 17.71 3.13147L15.37 0.791467C15.2775 0.698764 15.1676 0.625216 15.0466 0.575035C14.9257 0.524853 14.796 0.499023 14.665 0.499023C14.534 0.499023 14.4043 0.524853 14.2834 0.575035C14.1624 0.625216 14.0525 0.698764 13.96 0.791467L12.13 2.62147L15.88 6.37147L17.71 4.54147Z" fill="white"/>
</svg>
