<svg width="18" height="17" viewBox="0 0 18 17" fill="none" xmlns="http://www.w3.org/2000/svg">
<path d="M9 0C9 0 3.4326 4.806 0.3213 7.4088C0.222254 7.49503 0.14246 7.60113 0.0871042 7.72021C0.0317489 7.8393 0.00207118 7.9687 0 8.1C0 8.3387 0.0948211 8.56761 0.263604 8.7364C0.432387 8.90518 0.661305 9 0.9 9H2.7V15.3C2.7 15.5387 2.79482 15.7676 2.9636 15.9364C3.13239 16.1052 3.36131 16.2 3.6 16.2H6.3C6.53869 16.2 6.76761 16.1052 6.9364 15.9364C7.10518 15.7676 7.2 15.5387 7.2 15.3V11.7H10.8V15.3C10.8 15.5387 10.8948 15.7676 11.0636 15.9364C11.2324 16.1052 11.4613 16.2 11.7 16.2H14.4C14.6387 16.2 14.8676 16.1052 15.0364 15.9364C15.2052 15.7676 15.3 15.5387 15.3 15.3V9H17.1C17.3387 9 17.5676 8.90518 17.7364 8.7364C17.9052 8.56761 18 8.3387 18 8.1C17.9987 7.96619 17.9671 7.83441 17.9073 7.71466C17.8476 7.59491 17.7614 7.49031 17.6553 7.4088C14.5656 4.806 9 0 9 0Z" fill="#011338"/>
</svg>
