<svg width="18" height="17" viewBox="0 0 18 17" fill="none" xmlns="http://www.w3.org/2000/svg">
<path d="M9 0.399902C9 0.399902 3.4326 5.2059 0.3213 7.8087C0.222254 7.89493 0.14246 8.00103 0.0871042 8.12012C0.0317489 8.2392 0.00207118 8.3686 0 8.4999C0 8.7386 0.0948211 8.96752 0.263604 9.1363C0.432387 9.30508 0.661305 9.3999 0.9 9.3999H2.7V15.6999C2.7 15.9386 2.79482 16.1675 2.9636 16.3363C3.13239 16.5051 3.3613 16.5999 3.6 16.5999H6.3C6.53869 16.5999 6.76761 16.5051 6.9364 16.3363C7.10518 16.1675 7.2 15.9386 7.2 15.6999V12.0999H10.8V15.6999C10.8 15.9386 10.8948 16.1675 11.0636 16.3363C11.2324 16.5051 11.4613 16.5999 11.7 16.5999H14.4C14.6387 16.5999 14.8676 16.5051 15.0364 16.3363C15.2052 16.1675 15.3 15.9386 15.3 15.6999V9.3999H17.1C17.3387 9.3999 17.5676 9.30508 17.7364 9.1363C17.9052 8.96752 18 8.7386 18 8.4999C17.9987 8.36609 17.9671 8.23432 17.9073 8.11456C17.8476 7.99481 17.7614 7.89022 17.6553 7.8087C14.5656 5.2059 9 0.399902 9 0.399902Z" fill="white"/>
</svg>
