<svg width="40" height="40" viewBox="0 0 40 40" fill="none" xmlns="http://www.w3.org/2000/svg">
<circle cx="20" cy="20" r="19.5" fill="#11DC92" stroke="#11DC92"/>
<path d="M12.0012 25.7225C11.7179 25.7225 11.4806 25.6265 11.2892 25.4345C11.0979 25.2425 11.0019 25.0052 11.0012 24.7225C11.0006 24.4399 11.0966 24.2025 11.2892 24.0105C11.4819 23.8185 11.7192 23.7225 12.0012 23.7225H28.0012C28.2846 23.7225 28.5222 23.8185 28.7142 24.0105C28.9062 24.2025 29.0019 24.4399 29.0012 24.7225C29.0006 25.0052 28.9046 25.2429 28.7132 25.4355C28.5219 25.6282 28.2846 25.7239 28.0012 25.7225H12.0012ZM12.0012 20.7225C11.7179 20.7225 11.4806 20.6265 11.2892 20.4345C11.0979 20.2425 11.0019 20.0052 11.0012 19.7225C11.0006 19.4399 11.0966 19.2025 11.2892 19.0105C11.4819 18.8185 11.7192 18.7225 12.0012 18.7225H28.0012C28.2846 18.7225 28.5222 18.8185 28.7142 19.0105C28.9062 19.2025 29.0019 19.4399 29.0012 19.7225C29.0006 20.0052 28.9046 20.2429 28.7132 20.4355C28.5219 20.6282 28.2846 20.7239 28.0012 20.7225H12.0012ZM12.0012 15.7225C11.7179 15.7225 11.4806 15.6265 11.2892 15.4345C11.0979 15.2425 11.0019 15.0052 11.0012 14.7225C11.0006 14.4399 11.0966 14.2025 11.2892 14.0105C11.4819 13.8185 11.7192 13.7225 12.0012 13.7225H28.0012C28.2846 13.7225 28.5222 13.8185 28.7142 14.0105C28.9062 14.2025 29.0019 14.4399 29.0012 14.7225C29.0006 15.0052 28.9046 15.2429 28.7132 15.4355C28.5219 15.6282 28.2846 15.7239 28.0012 15.7225H12.0012Z" fill="#011338"/>
</svg>
