<svg width="48" height="48" viewBox="0 0 48 48" fill="none" xmlns="http://www.w3.org/2000/svg">
<circle cx="24" cy="24" r="24" fill="#11DC92"/>
<path d="M27.5869 12C27.8996 12.0008 28.2091 12.0661 28.4951 12.1924C28.7811 12.3186 29.0378 12.503 29.249 12.7334L33.5381 17.4287C33.9182 17.8427 34.129 18.3843 34.1279 18.9463V33.751C34.1276 34.0469 34.0687 34.3401 33.9551 34.6133C33.8414 34.8865 33.6754 35.1349 33.4658 35.3438C33.2562 35.5526 33.007 35.7174 32.7334 35.8301C32.4598 35.9427 32.1669 36.0007 31.8711 36H15.4492C14.8527 35.9999 14.2804 35.7633 13.8584 35.3418C13.4363 34.9202 13.1989 34.3476 13.1982 33.751V14.251C13.1987 13.9547 13.2572 13.6613 13.3711 13.3877C13.485 13.114 13.6522 12.8654 13.8623 12.6563C14.0724 12.4472 14.3216 12.2816 14.5957 12.169C14.8698 12.0564 15.1636 11.999 15.46 12H27.5869ZM16 23.1602V30H17.4463V27.5674H18.0693C18.5674 27.5674 18.9858 27.5061 19.3242 27.3848C19.6626 27.2635 19.9344 27.0974 20.1387 26.8867C20.3492 26.6697 20.4995 26.4272 20.5889 26.1592C20.6783 25.8846 20.7226 25.597 20.7227 25.2969C20.7227 24.6327 20.5181 24.1121 20.1094 23.7354C19.7071 23.3523 19.0656 23.1602 18.1846 23.1602H16ZM21.6318 30H23.5674C24.3525 30 25.0227 29.8691 25.5781 29.6074C26.1401 29.3456 26.5686 28.9558 26.8623 28.4385C27.1559 27.9214 27.3027 27.2797 27.3027 26.5137C27.3027 25.7793 27.1561 25.1656 26.8623 24.6738C26.5749 24.1758 26.1657 23.7994 25.6357 23.544C25.1121 23.2886 24.4925 23.1602 23.7773 23.1602H21.6318V30ZM28.3398 30H29.7666V27.2988H32.085V26.1113H29.7666V24.3486H32.2568V23.1602H28.3398V30ZM23.8545 24.3486C24.2759 24.3487 24.6306 24.4283 24.918 24.5879C25.2116 24.7412 25.4313 24.9811 25.5781 25.3067C25.725 25.6323 25.7988 26.0474 25.7988 26.5518C25.7988 27.2988 25.6261 27.8606 25.2812 28.2373C24.9364 28.614 24.4099 28.8027 23.7012 28.8027H23.0781V24.3486H23.8545ZM18.1074 24.3486C18.5034 24.3486 18.7943 24.4316 18.9795 24.5977C19.1645 24.7573 19.2568 25.0065 19.2568 25.3447C19.2568 25.5874 19.2023 25.7852 19.0938 25.9385C18.9853 26.0916 18.8324 26.2032 18.6348 26.2735C18.4369 26.3437 18.2003 26.3789 17.9258 26.3789H17.4463V24.3486H18.1074ZM28.6035 17.3457C28.6035 17.5445 28.6827 17.7354 28.8232 17.876C28.9637 18.0163 29.154 18.0956 29.3525 18.0957H32.1162L28.6035 14.251V17.3457Z" fill="#011338"/>
</svg>
