<svg width="18" height="19" viewBox="0 0 18 19" fill="none" xmlns="http://www.w3.org/2000/svg">
<path d="M7.18425 0.498047C6.05982 0.498648 4.95122 0.763032 3.94754 1.26995C2.94386 1.77686 2.0731 2.51217 1.40525 3.41678C0.7374 4.32138 0.291083 5.37005 0.102172 6.47849C-0.086738 7.58694 -0.0129727 8.72424 0.31754 9.79899C0.648052 10.8737 1.22609 11.856 2.0052 12.6667C2.78431 13.4775 3.74276 14.0941 4.80351 14.4672C5.86426 14.8402 6.99773 14.9591 8.11281 14.8145C9.22789 14.6698 10.2935 14.2656 11.224 13.6343L15.6662 18.0729C15.7896 18.2053 15.9384 18.3115 16.1037 18.3852C16.269 18.4589 16.4475 18.4985 16.6285 18.5017C16.8094 18.5049 16.9892 18.4716 17.157 18.4038C17.3248 18.336 17.4773 18.2351 17.6052 18.1071C17.7332 17.9792 17.8341 17.8267 17.9019 17.6589C17.9697 17.4911 18.003 17.3113 17.9998 17.1303C17.9966 16.9494 17.957 16.7709 17.8833 16.6056C17.8097 16.4403 17.7035 16.2915 17.571 16.1681L13.1324 11.7258C13.8667 10.6451 14.2926 9.3846 14.3641 8.07993C14.4357 6.77526 14.1503 5.47576 13.5387 4.32114C12.927 3.16653 12.0122 2.20048 10.8925 1.52687C9.77292 0.853263 8.49088 0.497573 7.18425 0.498047ZM2.69169 7.68614C2.69169 6.49464 3.16501 5.35194 4.00753 4.50942C4.85005 3.6669 5.99275 3.19358 7.18425 3.19358C8.37575 3.19358 9.51845 3.6669 10.361 4.50942C11.2035 5.35194 11.6768 6.49464 11.6768 7.68614C11.6768 8.87764 11.2035 10.0203 10.361 10.8629C9.51845 11.7054 8.37575 12.1787 7.18425 12.1787C5.99275 12.1787 4.85005 11.7054 4.00753 10.8629C3.16501 10.0203 2.69169 8.87764 2.69169 7.68614Z" fill="white"/>
</svg>
