<?xml version="1.0" ?><svg xmlns="http://www.w3.org/2000/svg" id="Procedure" viewBox="0 0 64 64"><path d="M25.88000488,48.92999268l-7.79998779,5.02001953c-7.26000977-4.60003662-12.08001709-12.71002197-12.08001709-21.95001221H1l9-14,.04998779.08001709,5.02001953,7.79998779,3.92999268,6.11999512h-5c0,7.78997803,4.95001221,14.42999268,11.88000488,16.92999268Z" style="fill:#68ddc1; stroke-width:0px;"/><path d="M18.06152344,53.93994141l7.82421875-5.00683594c.00537109.00146484.01074219.00341797.01611328.00537109l-7.82275391,5.01074219.00097656.00097656-.01855469-.01025391Z" style="fill:#68ddc1; stroke-width:0px;"/><path d="M18,54l14-9v5.03173828l1.05908203-.06298828c7.19824219-.42529297,13.42773438-5.07666016,15.87109375-11.84863281l5.02001953,7.79980469c-4.58935547,7.24267578-12.43457031,11.75244141-20.98632812,12.0625l-.96386719.03515625v4.98242188l-14-9Z" style="fill:#ff6c9d; stroke-width:0px;"/><path d="M53.99267578,46l-8.99267578-14h5.03173828l-.06298828-1.05908203c-.42529297-7.19824219-5.07666016-13.42773438-11.84863281-15.87109375l7.79980469-5.02001953c7.24267578,4.58935547,11.75244141,12.43457031,12.0625,20.98632812l.03515625.96386719h4.98242188l-9,14h-.00732422Z" style="fill:#ffe094; stroke-width:0px;"/><path d="M10.04980469,18.08007812c4.58935547-7.24267578,12.43457031-11.75244141,20.98632812-12.0625l.96386719-.03515625V1l14,9-14.00048828,9,.00048828-5.03173828-1.05908203.06298828c-7.19775391.42529297-13.42773438,5.07666016-15.87109375,11.84814453l-5.02001953-7.79931641Z" style="fill:#64c4ff; stroke-width:0px;"/><path d="M30.39208984,41c-.76757812,0-1.39208984-.62451172-1.39208984-1.39208984,0-.50195312-.25976562-.95263672-.69433594-1.20507812-.21337891-.12353516-.45507812-.18945312-.69921875-.18945312-.24121094,0-.48144531.06542969-.69482422.18896484-.21533203.12402344-.44824219.18701172-.69189453.18701172-.12158203,0-.24462891-.01611328-.36474609-.04833984-.359375-.09667969-.65966797-.32666016-.84521484-.64892578l-1.60742188-2.78417969c-.38378906-.66503906-.15527344-1.51806641.50927734-1.90234375.43603516-.25146484.69628906-.70214844.69628906-1.20556641,0-.50439453-.26123047-.95556641-.69824219-1.20654297-.66259766-.3828125-.89160156-1.23681641-.5078125-1.90185547l1.60791016-2.78369141c.18603516-.32226562.48583984-.55224609.84570312-.64892578.11914062-.03173828.24267578-.04833984.36474609-.04833984.24365234,0,.47607422.06298828.69042969.18701172.21777344.12451172.45654297.18847656.69580078.18847656.24365234,0,.48535156-.06542969.69921875-.18896484.43457031-.25244141.69433594-.703125.69433594-1.20507812,0-.76757812.62451172-1.39208984,1.39208984-1.39208984h3.21582031c.76757812,0,1.39208984.62451172,1.39208984,1.39208984,0,.50195312.25976562.95263672.69433594,1.20507812.21679688.12451172.45800781.18994141.69970703.18994141.24316406,0,.48486328-.06640625.69921875-.19189453.20703125-.11962891.44580078-.18457031.68652344-.18457031.12207031,0,.24560547.01660156.36669922.04882812.35791016.09619141.65820312.32617188.84375.6484375l1.60742188,2.78417969c.38378906.66503906.15527344,1.51806641-.50927734,1.90234375-.43603516.25146484-.69628906.70214844-.69628906,1.20556641,0,.50439453.26123047.95556641.69824219,1.20654297.66259766.3828125.89160156,1.23681641.5078125,1.90185547l-1.60791016,2.78369141c-.18603516.32226562-.48583984.55224609-.84570312.64892578-.12011719.03222656-.24267578.04833984-.36474609.04833984h0c-.24023438,0-.47851562-.06445312-.68994141-.18701172-.21777344-.12451172-.45654297-.18847656-.69580078-.18847656-.24316406,0-.484375.06494141-.69775391.18798828-.43652344.25341797-.69628906.70410156-.69628906,1.20605469,0,.76757812-.62451172,1.39208984-1.39208984,1.39208984h-3.21582031Z" style="fill:#78869b; stroke-width:0px;"/><circle cx="32" cy="32" r="3" style="fill:#5e6e84; stroke-width:0px;"/><path d="M12.72216797,16.09570312c4.76025391-5.78027344,11.78662109-9.09570312,19.27783203-9.09570312.55224609,0,1-.44775391,1-1v-3.16845703l11.15039062,7.16796875-11.15039062,7.16992188v-3.16943359c0-.55224609-.44775391-1-1-1-6.71533203,0-12.79589844,3.43310547-16.26611328,9.18359375-.28564453.47265625-.13378906,1.08740234.33935547,1.37255859.16162109.09765625.33984375.14404297.515625.14404297.33886719,0,.66943359-.171875.85693359-.48339844,2.93212891-4.85791016,7.94628906-7.86767578,13.55419922-8.18847656v3.97167969c0,.36572266.19970703.70214844.52050781.87744141.32080078.17578125.71191406.16162109,1.02001953-.03613281l13.98779297-8.9921875c.29101562-.18115234.46923828-.49853516.47167969-.84179688.00244141-.34277344-.17089844-.66308594-.45947266-.84863281L32.54052734.15869141c-.30810547-.19824219-.69921875-.21240234-1.01953125-.03662109-.32128906.17529297-.52099609.51220703-.52099609.87792969v4.01806641c-7.71386719.28222656-14.89257812,3.82080078-19.82177734,9.80615234-.35107422.42626953-.29003906,1.05664062.13623047,1.40771484.42578125.3515625,1.05664062.29003906,1.40771484-.13623047Z" style="fill:#393e4c; stroke-width:0px;"/><path d="M63.87792969,31.52099609c-.17529297-.32128906-.51220703-.52099609-.87792969-.52099609h-4.01806641c-.28222656-7.71386719-3.82080078-14.89257812-9.80615234-19.82177734-.42578125-.35107422-1.05664062-.29052734-1.40771484.13623047-.35107422.42626953-.29003906,1.05664062.13623047,1.40771484,5.78027344,4.76025391,9.09570312,11.78662109,9.09570312,19.27783203,0,.55224609.44775391,1,1,1h3.16845703l-7.16796875,11.15039062-7.16992188-11.15039062h3.16943359c.55224609,0,1-.44775391,1-1,0-6.71533203-3.43310547-12.79589844-9.18359375-16.26611328-.47314453-.28710938-1.08837891-.13378906-1.37255859.33935547-.28564453.47265625-.13378906,1.08740234.33935547,1.37255859,4.85791016,2.93212891,7.86767578,7.94628906,8.18847656,13.55419922h-3.97167969c-.36572266,0-.70214844.19970703-.87744141.52050781-.17529297.32128906-.16162109.71191406.03613281,1.02001953l8.9921875,13.98779297c.18115234.29101562.49853516.46923828.84179688.47167969h.00732422c.34033203,0,.65722656-.17285156.84130859-.45947266l9-14c.19775391-.30761719.21191406-.69873047.03662109-1.01953125Z" style="fill:#393e4c; stroke-width:0px;"/><path d="M51.27783203,47.90429688c-4.76025391,5.78027344-11.78662109,9.09570312-19.27783203,9.09570312-.55224609,0-1,.44775391-1,1v3.16845703l-11.15039062-7.16796875,11.15039062-7.16992188v3.16943359c0,.55224609.44775391,1,1,1,6.71533203,0,12.79589844-3.43310547,16.26611328-9.18359375.28564453-.47265625.13378906-1.08740234-.33935547-1.37255859-.47363281-.28662109-1.08789062-.13427734-1.37255859.33935547-2.93212891,4.85791016-7.94628906,7.86767578-13.55419922,8.18847656v-3.97167969c0-.36572266-.19970703-.70214844-.52050781-.87744141-.32177734-.17675781-.71191406-.16162109-1.02001953.03613281l-13.98779297,8.9921875c-.29101562.18115234-.46923828.49853516-.47167969.84179688-.00244141.34277344.17089844.66308594.45947266.84863281l14,9c.1640625.10546875.35205078.15869141.54052734.15869141.16455078,0,.32958984-.04052734.47900391-.12207031.32128906-.17529297.52099609-.51220703.52099609-.87792969v-4.01806641c7.71386719-.28222656,14.89257812-3.82080078,19.82177734-9.80615234.35107422-.42626953.29003906-1.05664062-.13623047-1.40771484-.42626953-.3515625-1.05664062-.29003906-1.40771484.13623047Z" style="fill:#393e4c; stroke-width:0px;"/><path d="M7,32c0-.55224609-.44775391-1-1-1h-3.16845703l7.16796875-11.15039062,7.16992188,11.15039062h-3.16943359c-.55224609,0-1,.44775391-1,1,0,6.71533203,3.43310547,12.79589844,9.18359375,16.26611328.47216797.28564453,1.08740234.13330078,1.37255859-.33935547.28564453-.47265625.13378906-1.08740234-.33935547-1.37255859-4.85791016-2.93212891-7.86767578-7.94628906-8.18847656-13.55419922h3.97167969c.36572266,0,.70214844-.19970703.87744141-.52050781.17529297-.32128906.16162109-.71191406-.03613281-1.02001953l-8.9921875-13.98779297c-.18115234-.29101562-.49853516-.46923828-.84179688-.47167969-.36767578-.00732422-.66308594.17089844-.84863281.45947266L.15869141,31.45947266c-.19775391.30761719-.21191406.69873047-.03662109,1.01953125.17529297.32128906.51220703.52099609.87792969.52099609h4.01806641c.28222656,7.71386719,3.82080078,14.89257812,9.80615234,19.82177734.18603516.15332031.41162109.22802734.63525391.22802734.28857422,0,.57470703-.12402344.77246094-.36425781.35107422-.42626953.29003906-1.05664062-.13623047-1.40771484-5.78027344-4.76025391-9.09570312-11.78662109-9.09570312-19.27783203Z" style="fill:#393e4c; stroke-width:0px;"/><path d="M41.46435547,28.39208984h-.00048828l-1.60742188-2.78417969c-.31933594-.55322266-.83544922-.94921875-1.45263672-1.11474609-.61767578-.16455078-1.26269531-.08105469-1.81542969.23876953-.16943359.09912109-.31835938.04248047-.39208984,0-.07324219-.04248047-.19628906-.14257812-.19628906-.33984375,0-1.31884766-1.07324219-2.39208984-2.39208984-2.39208984h-3.21582031c-1.31884766,0-2.39208984,1.07324219-2.39208984,2.39208984,0,.19726562-.12304688.29736328-.19628906.33984375s-.22265625.09716797-.39208984.00048828c-.55322266-.3203125-1.19726562-.40380859-1.81542969-.23925781-.6171875.16552734-1.13330078.56152344-1.45214844,1.11474609l-1.60839844,2.78417969c-.65917969,1.14257812-.26611328,2.60839844.87597656,3.26855469.17089844.09814453.19628906.25488281.19628906.33935547s-.02539062.24121094-.19628906.33984375c-1.14208984.65966797-1.53515625,2.12548828-.87548828,3.26806641l1.60742188,2.78417969c.31933594.55322266.83544922.94921875,1.45263672,1.11474609.61816406.16552734,1.26220703.08056641,1.81542969-.23876953.16992188-.09814453.31982422-.04199219.39208984,0,.07324219.04248047.19628906.14257812.19628906.33984375,0,1.31884766,1.07324219,2.39208984,2.39208984,2.39208984h3.21582031c1.31884766,0,2.39208984-1.07324219,2.39208984-2.39208984,0-.19726562.12304688-.29736328.19628906-.33984375.07275391-.04199219.22216797-.09765625.39208984-.00048828.55273438.3203125,1.19775391.40478516,1.81542969.23925781.6171875-.16552734,1.13330078-.56152344,1.45214844-1.11474609l1.60839844-2.78417969c.65917969-1.14257812.26611328-2.60839844-.87597656-3.26855469-.17089844-.09814453-.19628906-.25488281-.19628906-.33935547s.02539062-.24121094.19628906-.33984375c1.14208984-.65966797,1.53515625-2.12548828.87597656-3.26806641ZM39.73242188,34.60791016l-1.60839844,2.78417969c-.07080078.12255859-.1796875.16748047-.23828125.18310547-.05859375.01513672-.17529297.03027344-.29736328-.03955078-.75-.43261719-1.64453125-.43212891-2.39257812.00048828-.74853516.43261719-1.19580078,1.20703125-1.19580078,2.07177734,0,.21630859-.17578125.39208984-.39208984.39208984h-3.21582031c-.21630859,0-.39208984-.17578125-.39208984-.39208984,0-.86474609-.44726562-1.63916016-1.19580078-2.07177734-.37451172-.21630859-.78564453-.32421875-1.19677734-.32421875-.41064453,0-.82128906.10791016-1.19580078.32421875-.12353516.06982422-.23925781.0546875-.29736328.0390625-.05859375-.015625-.16748047-.06054688-.23876953-.18310547l-1.60742188-2.78417969c-.10839844-.1875-.04394531-.42822266.14355469-.53613281.74902344-.43212891,1.19628906-1.20703125,1.19628906-2.07177734s-.44726562-1.63964844-1.19628906-2.07128906c-.1875-.10839844-.25195312-.34912109-.14404297-.53662109l1.60839844-2.78417969c.07080078-.12255859.1796875-.16748047.23828125-.18310547.05810547-.01708984.17480469-.03125.29736328.03955078.74902344.43164062,1.64355469.43164062,2.39257812-.00048828.74853516-.43261719,1.19580078-1.20703125,1.19580078-2.07177734,0-.21630859.17578125-.39208984.39208984-.39208984h3.21582031c.21630859,0,.39208984.17578125.39208984.39208984,0,.86474609.44726562,1.63916016,1.19580078,2.07177734.74853516.43212891,1.64306641.43310547,2.39257812,0,.12207031-.07128906.23828125-.05615234.29736328-.0390625.05859375.015625.16748047.06054688.23876953.18310547l1.60791016,2.78417969c.10791016.1875.04296875.42822266-.14404297.53613281-.74902344.43212891-1.19628906,1.20703125-1.19628906,2.07177734s.44726562,1.63964844,1.19628906,2.07128906c.1875.10839844.25195312.34912109.14404297.53662109Z" style="fill:#393e4c; stroke-width:0px;"/><path d="M32,28c-2.20556641,0-4,1.79443359-4,4s1.79443359,4,4,4,4-1.79443359,4-4-1.79443359-4-4-4ZM32,34c-1.10302734,0-2-.89697266-2-2s.89697266-2,2-2,2,.89697266,2,2-.89697266,2-2,2Z" style="fill:#393e4c; stroke-width:0px;"/></svg>