<svg width="48" height="48" viewBox="0 0 48 48" fill="none" xmlns="http://www.w3.org/2000/svg">
<circle cx="24" cy="24" r="24" fill="#11DC92"/>
<path d="M27.5869 12C27.8996 12.0008 28.2091 12.0661 28.4951 12.1924C28.7811 12.3186 29.0378 12.503 29.249 12.7334L33.5381 17.4287C33.9182 17.8427 34.129 18.3843 34.1279 18.9463V33.751C34.1276 34.0469 34.0687 34.3401 33.9551 34.6133C33.8414 34.8865 33.6754 35.1349 33.4658 35.3438C33.2562 35.5526 33.007 35.7174 32.7334 35.8301C32.4598 35.9427 32.1669 36.0007 31.8711 36H15.4492C14.8527 35.9999 14.2804 35.7633 13.8584 35.3418C13.4363 34.9202 13.1989 34.3476 13.1982 33.751V14.251C13.1987 13.9547 13.2572 13.6613 13.3711 13.3877C13.485 13.114 13.6522 12.8654 13.8623 12.6563C14.0724 12.4472 14.3216 12.2816 14.5957 12.169C14.8698 12.0564 15.1636 11.999 15.46 12H27.5869ZM29.2168 23.0645C28.7443 23.0645 28.3326 23.1417 27.9814 23.2949C27.6367 23.4481 27.3683 23.6713 27.1768 23.9649C26.9916 24.2522 26.8984 24.6011 26.8984 25.0098C26.8985 25.3225 26.953 25.5911 27.0615 25.8145C27.1701 26.0378 27.3077 26.2291 27.4736 26.3887C27.646 26.5419 27.8247 26.6727 28.0098 26.7813C28.195 26.8834 28.3677 26.9732 28.5273 27.0498C28.7826 27.1711 29.0092 27.286 29.207 27.3945C29.4049 27.4967 29.5618 27.6082 29.6768 27.7295C29.7981 27.8508 29.8584 27.9985 29.8584 28.1709C29.8583 28.3111 29.824 28.4356 29.7539 28.544C29.6901 28.6525 29.5843 28.7389 29.4375 28.8027C29.297 28.8666 29.1084 28.8985 28.8721 28.8985C28.5273 28.8984 28.1793 28.8405 27.8281 28.7256C27.4833 28.6043 27.1479 28.4735 26.8223 28.333V29.6836C27.0074 29.773 27.202 29.8502 27.4062 29.9141C27.6169 29.9715 27.8342 30.0159 28.0576 30.0479C28.2874 30.0798 28.5207 30.0957 28.7568 30.0957C29.2931 30.0957 29.7468 30.016 30.1172 29.8565C30.4939 29.6904 30.7815 29.4573 30.9795 29.1572C31.1774 28.8571 31.2763 28.5058 31.2764 28.1035C31.2764 27.746 31.2093 27.4458 31.0752 27.2031C30.9411 26.9605 30.75 26.7491 30.501 26.5703C30.2583 26.3915 29.9606 26.2198 29.6094 26.0537C29.3222 25.9133 29.0831 25.7916 28.8916 25.6895C28.7 25.5873 28.5558 25.4816 28.46 25.3731C28.3644 25.2583 28.3165 25.1212 28.3164 24.9619C28.3164 24.8216 28.3484 24.6998 28.4121 24.5977C28.4823 24.4956 28.5815 24.4159 28.709 24.3584C28.8367 24.301 28.9902 24.2715 29.1689 24.2715C29.4308 24.2715 29.6865 24.3067 29.9355 24.377C30.1845 24.4472 30.4655 24.5462 30.7783 24.6738L31.248 23.544C30.8968 23.3907 30.5581 23.2725 30.2324 23.1895C29.9131 23.1064 29.5744 23.0645 29.2168 23.0645ZM15.4863 23.1602L17.6133 26.4746L15.3428 30H16.8945L18.4844 27.4141L20.0742 30H21.7314L19.4229 26.5518L21.5693 23.1602H20.0078L18.5615 25.6221L17.0859 23.1602H15.4863ZM22.2109 30H26.4346V28.8027H23.6572V23.1602H22.2109V30ZM28.6035 17.3457C28.6035 17.5445 28.6827 17.7354 28.8232 17.876C28.9637 18.0163 29.154 18.0956 29.3525 18.0957H32.1162L28.6035 14.251V17.3457Z" fill="#011338"/>
</svg>
