<svg width="18" height="21" viewBox="0 0 18 21" fill="none" xmlns="http://www.w3.org/2000/svg">
<path d="M4.82233 11.8583V18.58C4.82233 18.9819 4.66265 19.3674 4.37843 19.6517C4.0942 19.9359 3.70871 20.0956 3.30675 20.0956H1.52545C1.3256 20.0969 1.12746 20.0586 0.942443 19.983C0.757427 19.9074 0.589188 19.796 0.447409 19.6552C0.30563 19.5143 0.193113 19.3468 0.116333 19.1623C0.0395533 18.9777 2.79514e-05 18.7798 3.2165e-05 18.58V11.8583C-0.00127528 11.6576 0.0372882 11.4587 0.113485 11.273C0.189681 11.0873 0.301993 10.9187 0.443903 10.7767C0.585813 10.6348 0.754493 10.5225 0.940156 10.4463C1.12582 10.3701 1.32477 10.3316 1.52545 10.3329H3.30675C3.50661 10.3329 3.7045 10.3724 3.88902 10.4492C4.07354 10.526 4.24106 10.6385 4.38192 10.7802C4.52279 10.922 4.63422 11.0903 4.7098 11.2753C4.78538 11.4603 4.82363 11.6584 4.82233 11.8583ZM11.4161 2.43021V18.58C11.4161 18.7798 11.3766 18.9777 11.2998 19.1623C11.223 19.3468 11.1105 19.5143 10.9687 19.6552C10.8269 19.796 10.6587 19.9074 10.4737 19.983C10.2887 20.0586 10.0905 20.0969 9.89067 20.0956H8.10937C7.7065 20.0956 7.31999 19.9362 7.0342 19.6523C6.74841 19.3683 6.58654 18.9828 6.58395 18.58V2.43021C6.58653 2.02644 6.74807 1.63994 7.03358 1.35442C7.3191 1.06891 7.7056 0.907365 8.10937 0.904785H9.89067C10.2952 0.904785 10.6832 1.0655 10.9693 1.35157C11.2554 1.63764 11.4161 2.02564 11.4161 2.43021ZM18 7.52806V18.58C18 18.9819 17.8403 19.3674 17.5561 19.6517C17.2719 19.9359 16.8864 20.0956 16.4844 20.0956H14.7031C14.5033 20.0969 14.3051 20.0586 14.1201 19.983C13.9351 19.9074 13.7669 19.796 13.6251 19.6552C13.4833 19.5143 13.3708 19.3468 13.294 19.1623C13.2172 18.9777 13.1777 18.7798 13.1777 18.58V7.52806C13.1777 7.32774 13.2172 7.12938 13.2938 6.94431C13.3705 6.75924 13.4828 6.59108 13.6245 6.44943C13.7661 6.30778 13.9343 6.19542 14.1194 6.11876C14.3044 6.0421 14.5028 6.00264 14.7031 6.00264H16.5238C16.9198 6.01542 17.2952 6.18176 17.5707 6.46646C17.8463 6.75116 18.0002 7.13188 18 7.52806Z" fill="white"/>
</svg>
