<svg width="18" height="19" viewBox="0 0 18 19" fill="none" xmlns="http://www.w3.org/2000/svg">
<path d="M9 9.5C7.7625 9.5 6.70312 9.05937 5.82187 8.17812C4.94062 7.29687 4.5 6.2375 4.5 5C4.5 3.7625 4.94062 2.70312 5.82187 1.82188C6.70312 0.940625 7.7625 0.5 9 0.5C10.2375 0.5 11.2969 0.940625 12.1781 1.82188C13.0594 2.70312 13.5 3.7625 13.5 5C13.5 6.2375 13.0594 7.29687 12.1781 8.17812C11.2969 9.05937 10.2375 9.5 9 9.5ZM0 16.25V15.35C0 14.7125 0.16425 14.1267 0.49275 13.5927C0.82125 13.0587 1.257 12.6507 1.8 12.3687C2.9625 11.7875 4.14375 11.3517 5.34375 11.0615C6.54375 10.7712 7.7625 10.6257 9 10.625C10.2375 10.6242 11.4562 10.7697 12.6562 11.0615C13.8562 11.3532 15.0375 11.789 16.2 12.3687C16.7437 12.65 17.1799 13.058 17.5084 13.5927C17.8369 14.1275 18.0007 14.7132 18 15.35V16.25C18 16.8687 17.7799 17.3986 17.3396 17.8396C16.8994 18.2806 16.3695 18.5007 15.75 18.5H2.25C1.63125 18.5 1.10175 18.2799 0.6615 17.8396C0.22125 17.3994 0.00075 16.8695 0 16.25Z" fill="white"/>
</svg>
