<?xml version="1.0" ?><svg id="Layer_1" style="enable-background:new 0 0 2048 2048;" version="1.1" viewBox="0 0 2048 2048" xml:space="preserve" xmlns="http://www.w3.org/2000/svg" xmlns:xlink="http://www.w3.org/1999/xlink"><style type="text/css">
	.st0{fill:#75C0F2;}
	.st1{fill:#BFE69F;}
	.st2{fill:#F7E07F;}
	.st3{fill:#DD8793;}
	.st4{fill:#E6ECFF;}
</style><g><path class="st0" d="M377.52,679.44c-8,2.16-16.4,3.3-25.08,3.3c-53.26,0-96.44-43.18-96.44-96.44c0-53.26,43.18-96.44,96.44-96.44   c8.68,0,17.08,1.15,25.08,3.3V331.43h199.41c-2.16,7.99-3.3,16.4-3.3,25.08c0,53.26,43.18,96.44,96.44,96.44   c53.26,0,96.44-43.18,96.44-96.44c0-8.68-1.15-17.08-3.3-25.08h199.41v161.73c-8-2.16-16.4-3.3-25.08-3.3   c-53.26,0-96.44,43.18-96.44,96.44c0,53.26,43.18,96.44,96.44,96.44c8.68,0,17.08-1.15,25.08-3.3v161.73H763.2   c2.16,8,3.3,16.4,3.3,25.08c0,53.27-43.18,96.44-96.44,96.44c-53.26,0-96.44-43.17-96.44-96.44c0-8.68,1.15-17.08,3.3-25.08H377.52   V679.44"/><path class="st1" d="M1206.91,923.73c-8,2.16-16.4,3.3-25.08,3.3c-53.26,0-96.44-43.18-96.44-96.44   c0-53.26,43.18-96.44,96.44-96.44c8.68,0,17.08,1.15,25.08,3.3V575.73h199.41c-2.16,7.99-3.3,16.4-3.3,25.08   c0,53.26,43.18,96.44,96.44,96.44c53.26,0,96.44-43.18,96.44-96.44c0-8.68-1.15-17.08-3.3-25.08H1792v161.73   c-8-2.16-16.4-3.3-25.08-3.3c-53.26,0-96.44,43.18-96.44,96.44c0,53.26,43.18,96.44,96.44,96.44c8.68,0,17.08-1.15,25.08-3.3   v161.73h-199.41c2.16,8,3.3,16.4,3.3,25.08c0,53.27-43.18,96.44-96.44,96.44c-53.26,0-96.44-43.17-96.44-96.44   c0-8.68,1.15-17.08,3.3-25.08h-199.41V923.73"/><path class="st2" d="M621.81,1433.32c-8,2.16-16.4,3.3-25.08,3.3c-53.26,0-96.44-43.18-96.44-96.44   c0-53.26,43.18-96.44,96.44-96.44c8.68,0,17.08,1.15,25.08,3.3v-161.73h199.41c-2.16,7.99-3.3,16.4-3.3,25.08   c0,53.26,43.18,96.44,96.44,96.44c53.26,0,96.44-43.18,96.44-96.44c0-8.68-1.15-17.08-3.3-25.08h199.41v161.73   c-8-2.16-16.4-3.3-25.08-3.3c-53.26,0-96.44,43.18-96.44,96.44c0,53.26,43.18,96.44,96.44,96.44c8.68,0,17.08-1.15,25.08-3.3   v161.73H1007.5c2.16,8,3.3,16.4,3.3,25.08c0,53.27-43.18,96.44-96.44,96.44c-53.26,0-96.44-43.17-96.44-96.44   c0-8.68,1.15-17.08,3.3-25.08H621.81V1433.32"/><path class="st3" d="M1206.91,1433.32c-8,2.16-16.4,3.3-25.08,3.3c-53.26,0-96.44-43.18-96.44-96.44   c0-53.26,43.18-96.44,96.44-96.44c8.68,0,17.08,1.15,25.08,3.3v-161.73h199.41c-2.16,7.99-3.3,16.4-3.3,25.08   c0,53.26,43.18,96.44,96.44,96.44c53.26,0,96.44-43.18,96.44-96.44c0-8.68-1.15-17.08-3.3-25.08H1792v161.73   c-8-2.16-16.4-3.3-25.08-3.3c-53.26,0-96.44,43.18-96.44,96.44c0,53.26,43.18,96.44,96.44,96.44c8.68,0,17.08-1.15,25.08-3.3   v161.73h-199.41c2.16,8,3.3,16.4,3.3,25.08c0,53.27-43.18,96.44-96.44,96.44c-53.26,0-96.44-43.17-96.44-96.44   c0-8.68,1.15-17.08,3.3-25.08h-199.41V1433.32"/><g><path class="st4" d="M542.97,561.98c-4.1,0-7.99,1.32-11.26,3.82l-70.61,53.93c-4.57,3.49-7.3,9.01-7.3,14.77    s2.73,11.27,7.3,14.77l70.61,53.93c3.27,2.5,7.16,3.82,11.26,3.82c5.85,0,11.24-2.66,14.78-7.3c6.22-8.14,4.65-19.83-3.49-26.04    l-44.84-34.24l-6.44-4.92l6.44-4.92l44.83-34.24c3.94-3.01,6.48-7.38,7.14-12.3c0.66-4.92-0.64-9.8-3.65-13.74    C554.21,564.64,548.82,561.98,542.97,561.98"/><path class="st4" d="M694.16,561.98c-5.85,0-11.24,2.66-14.79,7.3c-3.01,3.94-4.31,8.83-3.65,13.74s3.19,9.29,7.14,12.3    l44.83,34.24l6.44,4.92l-6.44,4.92l-44.84,34.24c-8.14,6.22-9.71,17.9-3.49,26.04c3.55,4.64,8.93,7.3,14.78,7.3    c4.1,0,7.99-1.32,11.26-3.82l70.61-53.93c4.57-3.49,7.3-9.01,7.3-14.77s-2.73-11.27-7.3-14.77l-70.61-53.93    C702.15,563.3,698.25,561.98,694.16,561.98"/><path class="st4" d="M646.64,534.04c-1.64-0.46-3.33-0.69-5.02-0.69c-8.29,0-15.64,5.59-17.88,13.59L577.6,712.06    c-1.34,4.78-0.73,9.79,1.71,14.12c2.44,4.32,6.41,7.44,11.19,8.78c1.64,0.46,3.33,0.69,5.01,0.69c8.29,0,15.65-5.59,17.88-13.59    l46.15-165.13c1.34-4.78,0.73-9.79-1.71-14.12C655.39,538.49,651.42,535.37,646.64,534.04z"/></g></g></svg>